<?xml version="1.0" standalone="no"?>
<!DOCTYPE svg PUBLIC "-//W3C//DTD SVG 20010904//EN"
 "http://www.w3.org/TR/2001/REC-SVG-20010904/DTD/svg10.dtd">
<svg version="1.0" xmlns="http://www.w3.org/2000/svg"
 width="1110.000000pt" height="1280.000000pt" viewBox="0 0 1110.000000 1280.000000"
 preserveAspectRatio="xMidYMid meet">
<metadata>
Created by potrace 1.15, written by Peter Selinger 2001-2017
</metadata>
<g transform="translate(0.000000,1280.000000) scale(0.100000,-0.100000)"
fill="#000000" stroke="none">
<path d="M7708 12790 c-21 -5 -97 -33 -170 -61 -189 -73 -183 -73 -256 -5 -70
64 -93 72 -153 56 -106 -29 -177 -86 -259 -209 -102 -152 -104 -320 -8 -463
l33 -49 78 6 77 7 0 -48 c0 -72 17 -171 41 -249 16 -54 32 -80 74 -124 70 -75
75 -87 75 -179 0 -69 3 -84 26 -118 57 -84 68 -168 35 -275 -11 -34 -34 -83
-52 -109 -29 -43 -38 -49 -80 -54 -41 -6 -50 -11 -68 -42 -12 -19 -25 -32 -31
-29 -5 3 -31 -3 -56 -14 -26 -12 -64 -21 -86 -21 -39 0 -83 -19 -208 -89 l-65
-36 -135 0 c-153 -1 -160 -3 -323 -98 -149 -88 -160 -91 -392 -86 -281 5 -359
2 -444 -17 -127 -28 -660 -212 -766 -264 -121 -60 -248 -154 -373 -276 l-92
-90 6 -50 c4 -27 15 -73 26 -103 10 -30 31 -120 48 -200 33 -168 100 -383 172
-556 27 -66 118 -255 202 -420 243 -482 331 -673 330 -720 -1 -22 -15 -83 -32
-135 -67 -208 -99 -381 -87 -470 10 -75 34 -135 65 -165 l30 -29 37 19 c21 11
41 21 46 23 4 2 -5 -32 -21 -75 l-27 -78 20 -36 c38 -68 44 -72 72 -49 39 30
51 25 55 -22 2 -35 9 -46 37 -65 43 -29 44 -29 84 6 32 29 34 29 45 10 14 -22
75 -26 117 -7 23 10 25 17 25 69 0 88 5 94 48 58 21 -17 64 -42 96 -56 l59
-25 26 20 c33 25 30 55 -9 102 -84 99 -116 208 -87 296 11 35 13 54 5 73 -5
14 -13 91 -18 171 -8 152 -18 192 -62 245 -38 46 -46 66 -59 146 -29 189 -55
271 -127 409 -174 332 -235 519 -272 840 -11 96 -28 216 -37 265 -26 150 -28
207 -7 226 32 28 84 39 178 39 50 0 170 9 266 20 305 35 296 35 385 6 79 -27
98 -29 455 -56 69 -5 145 -15 170 -23 l45 -13 32 -109 c92 -312 205 -699 223
-772 13 -48 36 -103 57 -135 30 -47 34 -58 28 -99 -4 -34 3 -77 26 -165 45
-170 43 -219 -16 -386 -26 -73 -58 -169 -72 -213 -13 -44 -28 -90 -33 -101 -5
-12 -56 -58 -114 -104 -178 -137 -268 -228 -308 -312 -19 -40 -63 -116 -98
-168 -80 -123 -107 -176 -141 -280 -15 -47 -37 -112 -49 -145 -18 -47 -23 -84
-25 -170 -1 -109 -2 -111 -48 -204 -26 -52 -47 -100 -47 -107 0 -17 -64 -68
-200 -157 -96 -62 -143 -104 -285 -248 -198 -202 -227 -238 -368 -460 -173
-273 -236 -368 -331 -499 -120 -165 -280 -356 -317 -379 -17 -10 -58 -24 -92
-31 -93 -18 -216 -54 -461 -132 -193 -63 -231 -72 -301 -73 l-80 -1 -225 -108
c-229 -110 -276 -138 -320 -191 -57 -70 -90 -92 -206 -139 -184 -75 -379 -170
-478 -235 -100 -64 -572 -271 -666 -293 -30 -6 -71 -23 -91 -36 -24 -15 -74
-30 -145 -43 -60 -10 -113 -21 -119 -23 -5 -2 -19 1 -30 7 -11 6 -40 11 -65
12 -78 3 -167 30 -207 62 -51 41 -90 52 -218 62 -116 9 -136 4 -150 -38 -3
-10 -20 -22 -38 -29 -17 -6 -45 -22 -60 -34 -38 -31 -52 -120 -66 -414 -13
-267 -17 -284 -106 -474 -171 -366 -195 -440 -216 -686 -12 -138 -6 -370 12
-469 13 -74 51 -143 83 -151 15 -3 40 3 66 16 46 23 74 71 86 150 11 66 143
322 227 440 42 57 94 138 116 180 22 42 54 86 71 98 16 13 42 40 56 61 14 22
39 45 55 51 16 7 38 29 50 49 21 38 116 127 125 118 3 -3 -12 -47 -32 -98 -27
-69 -38 -112 -40 -164 -2 -38 -4 -73 -4 -76 0 -3 -15 -13 -34 -21 l-33 -16
-12 -114 c-11 -101 -23 -183 -37 -258 l-5 -25 14 25 c13 21 42 138 72 287 5
24 14 35 44 46 l38 16 7 80 c3 43 15 106 24 138 l19 58 7 -45 c15 -83 41 -117
101 -130 30 -7 40 -4 65 17 28 23 42 73 21 73 -5 0 -16 3 -24 6 -10 3 -17 -3
-21 -20 -3 -14 -13 -26 -22 -26 -20 0 -64 45 -64 66 0 9 17 48 37 87 37 71 86
129 132 158 24 15 24 15 8 64 -10 27 -17 62 -17 79 0 30 2 32 71 48 41 10 137
50 223 92 179 89 221 104 261 96 24 -5 36 -1 60 21 18 17 85 48 170 79 223 83
275 98 427 125 206 37 513 121 1066 290 227 70 277 89 294 110 28 36 72 52
233 86 77 17 199 48 270 70 138 43 247 58 305 42 29 -8 49 -5 115 19 137 50
168 72 231 163 39 55 73 92 103 110 25 16 73 52 106 81 79 68 324 225 433 278
91 43 821 523 977 641 120 91 186 147 335 285 147 135 213 190 229 190 6 0 51
-22 99 -49 165 -94 275 -141 407 -175 72 -18 176 -50 232 -69 134 -47 268 -76
624 -137 398 -68 525 -96 691 -155 90 -33 205 -91 234 -120 30 -30 30 -46 2
-215 -20 -123 -24 -138 -51 -163 -22 -20 -33 -44 -44 -94 -7 -37 -23 -83 -34
-101 -27 -46 -63 -174 -84 -297 -13 -74 -15 -126 -10 -200 8 -122 -3 -196 -84
-563 -33 -147 -80 -370 -106 -497 -25 -126 -52 -241 -60 -255 -18 -33 -35
-131 -35 -199 0 -51 -23 -146 -92 -389 -12 -41 -27 -76 -35 -79 -7 -3 -26 0
-43 5 -18 7 -32 7 -35 1 -4 -5 -14 -9 -24 -9 -11 0 -32 -26 -58 -73 -59 -104
-83 -179 -89 -271 -3 -45 -12 -121 -20 -170 -19 -109 -14 -140 34 -205 46 -62
85 -84 182 -104 42 -8 125 -37 186 -65 60 -28 128 -54 149 -57 22 -4 105 -45
185 -90 255 -145 351 -185 491 -205 41 -6 78 -15 83 -20 6 -6 24 -10 41 -10
16 -1 72 -9 123 -19 86 -17 107 -18 300 -6 252 16 280 24 322 99 17 28 30 61
30 73 0 29 -94 136 -128 146 -15 4 -90 17 -167 28 -227 32 -227 32 -340 179
-38 50 -63 71 -107 92 -49 24 -58 33 -67 65 -6 21 -11 43 -11 49 0 6 -14 17
-32 25 -48 21 -67 63 -77 170 -12 117 -21 141 -65 168 -20 12 -63 58 -96 102
l-60 80 14 97 c8 53 17 124 21 157 4 33 11 65 16 71 5 6 13 44 19 84 6 41 46
183 90 315 44 132 104 319 134 415 41 130 77 220 141 347 47 95 85 179 85 186
0 31 53 186 108 319 64 153 105 276 117 346 5 33 3 47 -9 61 -15 17 -13 25 33
113 44 85 72 163 157 443 32 109 41 127 104 213 117 162 107 291 -41 489 -105
139 -238 289 -291 326 -243 171 -530 364 -698 469 -133 83 -206 120 -439 220
-278 120 -420 196 -576 308 -157 113 -271 173 -361 190 -34 7 -67 16 -74 20
-24 15 -1 77 55 147 57 71 69 97 80 175 4 29 16 60 31 77 33 39 60 161 79 356
26 274 43 331 126 422 68 75 115 154 159 268 35 92 90 305 115 450 17 95 20
103 64 151 31 34 62 85 92 153 25 57 48 103 53 102 18 0 392 -588 504 -791 62
-114 73 -128 121 -157 65 -39 292 -123 332 -123 66 0 111 43 276 260 154 203
188 256 265 411 75 153 94 213 139 449 49 259 113 452 189 571 24 36 39 49 72
59 60 17 115 58 173 127 27 32 67 74 90 92 26 22 44 47 52 75 11 38 10 44 -12
76 -21 30 -24 43 -19 86 6 44 3 53 -21 82 -24 29 -26 35 -15 67 14 43 11 48
-56 91 -52 34 -54 36 -39 57 41 59 5 118 -85 138 -31 7 -43 3 -105 -36 -38
-24 -81 -55 -94 -69 -30 -32 -41 -32 -71 -1 -13 14 -29 25 -36 25 -7 0 -35
-31 -63 -68 -48 -65 -119 -136 -172 -173 -24 -16 -24 -20 -26 -194 -1 -145 -5
-190 -22 -244 -11 -36 -31 -109 -45 -162 -30 -118 -189 -428 -270 -529 -29
-36 -61 -78 -71 -95 -29 -47 -67 -85 -84 -85 -10 0 -30 32 -54 89 -21 49 -77
158 -124 242 -123 220 -208 400 -238 503 -29 101 -30 121 -10 156 32 55 15
136 -63 300 -23 48 -44 109 -48 140 -13 103 -135 306 -281 464 l-52 56 -73 0
c-139 0 -278 51 -278 102 0 13 25 46 66 87 60 59 66 68 61 97 -5 28 0 38 35
74 31 31 39 46 34 63 -4 12 -9 46 -13 74 -5 50 -4 55 31 93 20 22 36 43 36 46
0 4 -19 65 -42 136 -34 106 -39 133 -30 146 29 39 42 85 42 143 0 44 6 72 21
99 l21 37 -21 41 c-11 22 -45 111 -74 199 -66 194 -95 251 -161 321 -57 61
-169 148 -233 180 -23 12 -56 42 -74 67 -34 47 -60 58 -129 54 -19 -1 -78 12
-130 31 -103 35 -222 48 -292 30z"/>
</g>
</svg>
